<?xml version="1.0" standalone="no"?><!DOCTYPE svg PUBLIC "-//W3C//DTD SVG 1.1//EN" "http://www.w3.org/Graphics/SVG/1.1/DTD/svg11.dtd"><svg class="icon" width="12px" height="12.00px" viewBox="0 0 1024 1024" version="1.1" xmlns="http://www.w3.org/2000/svg"><path fill="#FF5500" d="M109.8 512.5a402.7 402.7 0 1 0 805.4 0 402.7 402.7 0 1 0-805.4 0zM510.7 958.7c-60.3 0-118.9-11.8-174-35.1-53.2-22.5-101.1-54.8-142.1-95.8-41.1-41.1-73.3-88.9-95.8-142.1-23.3-55.1-35.1-113.7-35.1-174s11.8-118.9 35.1-174c22.5-53.2 54.8-101.1 95.8-142.1 41.1-41.1 88.9-73.3 142.1-95.8 55.1-23.3 113.7-35.1 174-35.1s118.9 11.8 174 35.1c53.2 22.5 101.1 54.8 142.1 95.8 41.1 41.1 73.3 88.9 95.8 142.1 23.3 55.1 35.1 113.7 35.1 174s-11.8 118.9-35.1 174c-22.5 53.2-54.8 101.1-95.8 142.1-41.1 41.1-88.9 73.3-142.1 95.8-55.1 23.3-113.7 35.1-174 35.1z m0-830.2c-211.2 0-383.1 171.9-383.1 383.1 0 211.2 171.9 383.1 383.1 383.1s383.1-171.9 383.1-383.1c0-211.3-171.9-383.1-383.1-383.1zM319.1 511.6a191.6 191.6 0 1 0 383.2 0 191.6 191.6 0 1 0-383.2 0z" /></svg>