<?xml version="1.0" encoding="UTF-8"?>
<svg width="12px" height="695px" viewBox="0 0 12 695" version="1.1" xmlns="http://www.w3.org/2000/svg" xmlns:xlink="http://www.w3.org/1999/xlink">
    <title>右侧装饰</title>
    <defs>
        <linearGradient x1="50%" y1="0.472574301%" x2="50%" y2="100%" id="linearGradient-1">
            <stop stop-color="#18D8F3" offset="0%"></stop>
            <stop stop-color="#0EC7EE" stop-opacity="0" offset="100%"></stop>
        </linearGradient>
    </defs>
    <g id="首页" stroke="none" stroke-width="1" fill="none" fill-rule="evenodd">
        <g id="产业数据" transform="translate(-674.000000, -345.000000)">
            <g id="右侧装饰" transform="translate(680.000000, 693.000000) scale(-1, 1) translate(-680.000000, -693.000000) translate(675.000000, 346.000000)">
                <polyline id="路径-12" stroke="url(#linearGradient-1)" transform="translate(5.000000, 347.000000) scale(-1, 1) translate(-5.000000, -347.000000) " points="-6.9388939e-17 694 0 340.847656 10 320.847656 10 20 0 0"></polyline>
                <line x1="9.5" y1="324.535156" x2="9.5" y2="21" id="路径-12备份" stroke="#FFFFFF" opacity="0.200000003" stroke-dasharray="10,6" transform="translate(9.500000, 172.767578) scale(-1, 1) translate(-9.500000, -172.767578) "></line>
                <rect id="矩形备份-135" stroke="#46DFFF" transform="translate(8.500000, 55.500000) scale(-1, 1) translate(-8.500000, -55.500000) " x="7.5" y="46" width="2" height="19"></rect>
                <rect id="矩形备份-136" stroke="#46DFFF" transform="translate(8.500000, 87.500000) scale(-1, 1) translate(-8.500000, -87.500000) " x="7.5" y="78" width="2" height="19"></rect>
                <rect id="矩形备份-137" stroke="#46DFFF" transform="translate(8.500000, 119.500000) scale(-1, 1) translate(-8.500000, -119.500000) " x="7.5" y="110" width="2" height="19"></rect>
                <rect id="矩形备份-138" stroke="#46DFFF" transform="translate(8.500000, 151.500000) scale(-1, 1) translate(-8.500000, -151.500000) " x="7.5" y="142" width="2" height="19"></rect>
                <rect id="矩形备份-139" stroke="#46DFFF" transform="translate(8.500000, 183.500000) scale(-1, 1) translate(-8.500000, -183.500000) " x="7.5" y="174" width="2" height="19"></rect>
                <rect id="矩形备份-140" stroke="#46DFFF" transform="translate(8.500000, 215.500000) scale(-1, 1) translate(-8.500000, -215.500000) " x="7.5" y="206" width="2" height="19"></rect>
                <rect id="矩形备份-141" stroke="#46DFFF" transform="translate(8.500000, 247.500000) scale(-1, 1) translate(-8.500000, -247.500000) " x="7.5" y="238" width="2" height="19"></rect>
                <rect id="矩形备份-142" stroke="#46DFFF" transform="translate(8.500000, 279.500000) scale(-1, 1) translate(-8.500000, -279.500000) " x="7.5" y="270" width="2" height="19"></rect>
                <rect id="矩形备份-143" stroke="#46DFFF" transform="translate(8.500000, 311.500000) scale(-1, 1) translate(-8.500000, -311.500000) " x="7.5" y="302" width="2" height="19"></rect>
            </g>
        </g>
    </g>
</svg>