<?xml version="1.0" encoding="UTF-8"?>
<svg width="12px" height="950px" viewBox="0 0 12 950" version="1.1" xmlns="http://www.w3.org/2000/svg" xmlns:xlink="http://www.w3.org/1999/xlink">
    <title>左侧装饰</title>
    <defs>
        <linearGradient x1="50%" y1="0.472574301%" x2="50%" y2="100%" id="linearGradient-1">
            <stop stop-color="#20E5F8" stop-opacity="0" offset="0%"></stop>
            <stop stop-color="#18D8F3" offset="43.8820047%"></stop>
            <stop stop-color="#0EC7EE" stop-opacity="0" offset="100%"></stop>
        </linearGradient>
    </defs>
    <g id="首页" stroke="none" stroke-width="1" fill="none" fill-rule="evenodd">
        <g id="产业数据" transform="translate(-1394.000000, -90.000000)">
            <g id="左侧装饰" transform="translate(1400.000000, 565.000000) scale(-1, 1) translate(-1400.000000, -565.000000) translate(1395.000000, 90.000000)">
                <polyline id="路径-12" stroke="url(#linearGradient-1)" points="-6.9388939e-17 950 0 596.847656 10 576.847656 10 276.3125 0 256.3125 -6.9388939e-17 0"></polyline>
                <line x1="0.5" y1="578.535156" x2="0.5" y2="276" id="路径-12备份" stroke="#FFFFFF" opacity="0.200000003" stroke-dasharray="10,6"></line>
                <rect id="矩形备份-134" stroke="#46DFFF" x="0.5" y="302" width="2" height="19"></rect>
                <rect id="矩形备份-135" stroke="#46DFFF" x="0.5" y="332" width="2" height="19"></rect>
                <rect id="矩形备份-136" stroke="#46DFFF" x="0.5" y="364" width="2" height="19"></rect>
                <rect id="矩形备份-137" stroke="#46DFFF" x="0.5" y="396" width="2" height="19"></rect>
                <rect id="矩形备份-138" stroke="#46DFFF" x="0.5" y="428" width="2" height="19"></rect>
                <rect id="矩形备份-139" stroke="#46DFFF" x="0.5" y="460" width="2" height="19"></rect>
                <rect id="矩形备份-140" stroke="#46DFFF" x="0.5" y="492" width="2" height="19"></rect>
                <rect id="矩形备份-141" stroke="#46DFFF" x="0.5" y="524" width="2" height="19"></rect>
                <rect id="矩形备份-144" stroke="#46DFFF" x="0.5" y="556" width="2" height="19"></rect>
            </g>
        </g>
    </g>
</svg>