<?xml version="1.0" encoding="UTF-8"?>
<svg width="11px" height="11px" viewBox="0 0 11 11" version="1.1" xmlns="http://www.w3.org/2000/svg" xmlns:xlink="http://www.w3.org/1999/xlink">
    <title>增长</title>
    <g id="首页" stroke="none" stroke-width="1" fill="none" fill-rule="evenodd">
        <g id="产业数据" transform="translate(-537.000000, -266.000000)" fill="#E6B90E" fill-rule="nonzero">
            <g id="数据1备份" transform="translate(380.000000, 150.000000)">
                <g id="增长" transform="translate(113.000000, 46.000000)">
                    <g transform="translate(44.000000, 70.000000)">
                        <path d="M6.22537496,1.10599268 C6.10150643,0.964669108 5.89846649,0.964669108 5.7746406,1.10599268 L2.06649422,5.34617054 C1.942647,5.48746201 1.99675687,5.60355917 2.18759117,5.60355917 L3.57393805,5.60355917 C3.76480432,5.60355917 3.92057807,5.75613727 3.92057807,5.94321716 L3.92057807,8.66034201 C3.92057807,8.8473791 4.07623455,9 4.26710083,9 L7.73291472,9 C7.9237277,9 8.0794588,8.8473791 8.0794588,8.66034201 L8.07945881,5.94321716 C8.07945881,5.75613727 8.23517926,5.60355917 8.42602422,5.60355917 L9.81230714,5.60355917 C10.0032161,5.60355917 10.0573579,5.48746201 9.93354268,5.34617054 L6.22537496,1.10599268 Z" id="路径"></path>
                        <path d="M4.66662053,11 C4.29815887,11 4,10.7763761 4,10.5000236 C4,10.2236475 4.29815887,10 4.66662053,10 L7.33327694,10 L7.33327694,10 C7.70185139,10 8,10.2236475 8,10.5000236 C8,10.7763761 7.70185138,11 7.33327694,11 L4.66662053,11 L4.66662053,11 Z" id="形状结合" opacity="0.5"></path>
                    </g>
                </g>
            </g>
        </g>
    </g>
</svg>